<svg width="43" height="39" viewBox="0 0 43 39" fill="none" xmlns="http://www.w3.org/2000/svg">
<g clip-path="url(#clip0_43_111)">
<path d="M33.2368 10.6432C31.8607 15.5034 28.8799 19.7276 24.7803 22.6273L23.8102 23.3312L23.9079 24.5344C24.0375 26.0866 23.6085 27.6256 22.6989 28.8711C22.7025 28.3544 22.6737 27.8374 22.6126 27.3234L22.2474 24.1908L19.4349 25.6209C19.1868 25.748 18.9322 25.8619 18.672 25.9621L14.1467 19.7251C14.3647 19.4254 14.5954 19.143 14.8417 18.8581L16.7584 16.6976L14.1283 15.4738C13.6879 15.2701 13.2362 15.0925 12.7757 14.9422C14.2336 14.4814 15.8119 14.5383 17.2482 15.1036L18.3323 15.5292L19.2339 14.875C23.2919 11.9526 28.2141 10.4675 33.241 10.649L33.2368 10.6432ZM35.615 8.92656C35.5203 8.79671 35.3826 8.70495 35.2272 8.66821L35.1437 8.64917C29.0381 7.97699 22.9324 9.57392 17.9822 13.1377C16.047 12.3766 13.9174 12.3192 11.9653 12.9754C10.0133 13.6316 8.36298 14.9597 7.30282 16.7276C9.30158 16.3295 11.3838 16.5775 13.2526 17.4363C12.7376 18.0321 12.2696 18.6675 11.8527 19.3368C11.7612 19.4498 11.7095 19.5904 11.7058 19.737C11.702 19.8836 11.7462 20.0281 11.8318 20.1483L17.6692 28.1938C17.787 28.3561 18.0588 28.4066 18.3574 28.3139C19.0897 28.1406 19.7967 27.8772 20.4626 27.5296C20.7046 29.573 20.2941 31.6311 19.2904 33.4057C21.3211 32.9913 23.1223 31.8484 24.3597 30.1891C25.5971 28.5298 26.1868 26.4668 26.0192 24.3828C31.0269 20.837 34.4922 15.5046 35.7241 9.44908C35.743 9.35851 35.7426 9.26467 35.7231 9.17366C35.7036 9.08265 35.6653 8.99649 35.6108 8.92077L35.615 8.92656Z" fill="#FF0078"/>
<path d="M22.5311 18.4108C22.2081 17.9656 22.0221 17.4362 21.9965 16.8893C21.9709 16.3424 22.1069 15.8026 22.3874 15.3379C22.6678 14.8731 23.0802 14.5043 23.5724 14.2778C24.0647 14.0513 24.6148 13.9773 25.1535 14.0652C25.6921 14.153 26.1952 14.3988 26.5993 14.7715C27.0034 15.1442 27.2904 15.6271 27.4242 16.1595C27.5579 16.6918 27.5324 17.2496 27.3509 17.7627C27.1694 18.2758 26.8399 18.7211 26.4041 19.0425V19.0425C26.1251 19.2556 25.8062 19.4106 25.4657 19.4989C25.1252 19.5871 24.7697 19.6068 24.4196 19.5568C24.0695 19.5069 23.7316 19.3882 23.4251 19.2076C23.1187 19.027 22.8499 18.788 22.6338 18.5044C22.6016 18.4721 22.5746 18.4349 22.5539 18.3942L22.5311 18.4108Z" fill="#FF0078"/>
<path d="M15.5501 28.2626C15.4494 28.1142 15.3206 27.9871 15.1711 27.8888C15.0217 27.7904 14.8546 27.7227 14.6797 27.6897C14.5049 27.6567 14.3257 27.659 14.1528 27.6965C13.9799 27.7341 13.8167 27.806 13.6728 27.9082L10.3058 30.3511C10.0122 30.5641 9.81656 30.8869 9.76195 31.2484C9.70734 31.61 9.79822 31.9806 10.0146 32.2789C10.231 32.5771 10.5552 32.7785 10.9158 32.8387C11.2764 32.899 11.644 32.8132 11.9376 32.6001L15.2589 30.1903C15.4046 30.0917 15.5288 29.9647 15.6244 29.8165C15.72 29.6684 15.785 29.5022 15.8156 29.3277C15.8462 29.1531 15.8419 28.9736 15.8028 28.7997C15.7637 28.6258 15.6907 28.461 15.5879 28.3147L15.5501 28.2626Z" fill="#A60000"/>
<path d="M11.008 22.0024C10.9086 21.8493 10.7799 21.7174 10.6296 21.6146C10.4792 21.5117 10.3103 21.44 10.1328 21.4037C9.95528 21.3674 9.77285 21.3673 9.59634 21.4033C9.41984 21.4392 9.25287 21.5107 9.10538 21.6132L5.73844 24.0561C5.44482 24.2692 5.24918 24.592 5.19457 24.9535C5.13996 25.315 5.23085 25.6857 5.44724 25.9839C5.66363 26.2822 5.98779 26.4835 6.34842 26.5438C6.70906 26.604 7.07661 26.5182 7.37023 26.3052L10.6915 23.8954C10.8372 23.7968 10.9614 23.6697 11.057 23.5216C11.1526 23.3735 11.2176 23.2073 11.2482 23.0327C11.2789 22.8581 11.2745 22.6787 11.2354 22.5048C11.1963 22.3309 11.1233 22.166 11.0206 22.0198L11.008 22.0024Z" fill="#A60000"/>
<path d="M13.2159 25.0456C13.114 24.8987 12.9846 24.7731 12.8351 24.6758C12.6856 24.5785 12.5189 24.5115 12.3445 24.4786C12.1702 24.4457 11.9916 24.4475 11.819 24.484C11.6464 24.5205 11.4832 24.5909 11.3386 24.6912L6.69905 28.0574C6.40543 28.2704 6.2098 28.5932 6.15519 28.9548C6.10058 29.3163 6.19146 29.6869 6.40785 29.9852C6.62424 30.2834 6.94841 30.4848 7.30904 30.5451C7.66967 30.6053 8.03722 30.5195 8.33084 30.3064L12.8962 26.994C13.0419 26.8954 13.1661 26.7683 13.2617 26.6202C13.3573 26.4721 13.4223 26.3059 13.4529 26.1314C13.4835 25.9568 13.4792 25.7773 13.4401 25.6034C13.401 25.4295 13.328 25.2646 13.2252 25.1184L13.2159 25.0456Z" fill="#A60000"/>
</g>
<defs>
<clipPath id="clip0_43_111">
<rect width="22" height="36" fill="white" transform="translate(29.1383) rotate(54.0371)"/>
</clipPath>
</defs>
</svg>
